<svg xmlns="http://www.w3.org/2000/svg" width="20" height="20" viewBox="0 0 20 20">
    <path fill="#3C4858" fill-rule="nonzero" d="M9.507 2C11.972 2 14.4 3.17 14.4 5.972c0 2.583-2.87 3.576-3.487 4.51-.463.693-.308 1.669-1.58 1.669-.828 0-1.232-.695-1.232-1.33 0-2.366 3.37-2.901 3.37-4.849 0-1.072-.692-1.707-1.848-1.707-2.466 0-1.503 2.62-3.37 2.62C5.579 6.886 5 6.47 5 5.676 5 3.726 7.156 2 9.507 2zM9.41 13.44c.865 0 1.58.734 1.58 1.63 0 .895-.713 1.63-1.58 1.63-.867 0-1.58-.734-1.58-1.63 0-.895.713-1.63 1.58-1.63z"/>
</svg>
